<?xml version="1.0" encoding="UTF-8" standalone="no"?>
<!DOCTYPE svg PUBLIC "-//W3C//DTD SVG 1.1//EN" "http://www.w3.org/Graphics/SVG/1.1/DTD/svg11.dtd">
<!-- Created with Vectornator (http://vectornator.io/) -->
<svg height="100%" stroke-miterlimit="10" style="fill-rule:nonzero;clip-rule:evenodd;stroke-linecap:round;stroke-linejoin:round;" version="1.1" viewBox="168.5 173.012 500 659.976" width="100%" xml:space="preserve" xmlns="http://www.w3.org/2000/svg" xmlns:xlink="http://www.w3.org/1999/xlink">
<defs/>
<g id="Capa-1-copiar-copiar">
<path d="M520.801 174.527C514.236 175.537 495.3 176.042 463.993 176.042C432.686 176.042 405.671 177.304 382.948 179.829C360.225 182.354 343.562 183.616 332.957 183.616C322.353 183.616 307.962 184.626 289.784 186.646C271.605 188.666 259.234 190.685 252.67 192.705C246.105 194.725 241.056 197.755 237.521 201.794C233.986 205.834 227.927 219.72 219.343 243.453C210.758 267.186 202.174 284.859 193.59 296.473C185.006 308.087 179.704 316.167 177.684 320.711C175.664 325.256 173.392 332.325 170.867 341.919C168.342 351.514 167.837 365.905 169.352 385.093C170.867 404.281 174.907 420.945 181.471 435.084C188.035 449.222 193.842 463.614 198.892 478.257C203.942 492.901 208.991 511.584 214.041 534.307C219.09 557.03 229.947 592.125 246.61 639.59C263.274 687.056 273.878 721.141 278.422 741.844C282.967 762.547 289.531 780.725 298.116 796.379C306.7 812.032 313.769 821.879 319.324 825.919C324.878 829.958 330.18 832.231 335.23 832.736C340.279 833.24 343.814 832.988 345.834 831.978C347.854 830.968 350.126 827.686 352.651 822.131C355.176 816.577 358.963 810.77 364.012 804.711C369.062 798.651 375.121 794.359 382.191 791.834C389.26 789.309 395.572 785.522 401.126 780.473C406.681 775.423 414.003 760.527 423.092 735.784C432.181 711.041 446.572 678.219 466.266 637.318C485.959 596.417 503.885 555.263 520.043 513.857C536.202 472.45 549.836 441.143 560.945 419.935C572.054 398.727 582.405 381.558 591.999 368.43C601.593 355.301 610.683 344.444 619.267 335.86C627.851 327.276 635.425 317.934 641.99 307.835C648.554 297.736 654.614 286.879 660.168 275.265C665.723 263.651 668.5 250.775 668.5 236.636C668.5 222.498 666.733 210.631 663.198 201.037C659.663 191.443 656.129 184.878 652.594 181.344C649.059 177.809 646.282 175.537 644.262 174.527C642.242 173.517 622.802 173.012 585.94 173.012C549.078 173.012 527.365 173.517 520.801 174.527ZM552.613 272.236C581.395 272.741 598.059 274.255 602.603 276.78C607.148 279.305 609.673 283.597 610.178 289.657C610.683 295.716 607.905 302.28 601.846 309.35C595.786 316.419 587.455 323.993 576.851 332.073C566.247 340.152 558.42 346.969 553.37 352.523C548.321 358.078 543.776 364.642 539.737 372.217C535.697 379.791 531.405 392.667 526.86 410.846C522.316 429.024 516.256 447.96 508.682 467.653C501.107 487.346 496.563 501.485 495.048 510.069C493.533 518.654 487.221 536.327 476.112 563.09C465.003 589.852 454.399 612.323 444.3 630.501C434.201 648.679 425.869 668.625 419.305 690.338C412.74 712.051 406.933 728.21 401.884 738.814C396.834 749.418 392.542 756.74 389.007 760.779C385.473 764.819 381.938 767.849 378.403 769.869C374.869 771.888 368.557 773.656 359.468 775.171C350.378 776.686 341.794 775.423 333.715 771.384C325.636 767.344 320.081 763.557 317.051 760.022C314.022 756.487 303.67 734.017 285.997 692.611C268.323 651.204 249.64 591.62 229.947 513.857C210.253 436.093 200.407 392.415 200.407 382.821C200.407 373.227 201.164 364.895 202.679 357.825C204.194 350.756 206.971 342.424 211.011 332.83C215.051 323.236 223.887 312.127 237.521 299.503C251.155 286.879 268.071 279.305 288.269 276.78C308.467 274.255 341.794 273.498 388.25 274.508C434.706 275.518 466.518 275.265 483.687 273.75C500.855 272.236 523.83 271.731 552.613 272.236ZM304.175 420.692C300.64 423.217 298.368 426.247 297.358 429.782C296.348 433.316 295.843 440.386 295.843 450.99C295.843 461.594 297.106 471.693 299.63 481.287C302.155 490.881 305.437 499.465 309.477 507.04C313.517 514.614 318.566 521.683 324.626 528.248C330.685 534.812 336.24 539.357 341.289 541.882C346.339 544.406 350.631 545.416 354.166 544.911C357.7 544.406 364.77 538.852 375.374 528.248C385.978 517.644 393.552 509.059 398.097 502.495C402.641 495.931 407.438 486.336 412.488 473.713C417.537 461.089 419.81 450.232 419.305 441.143C418.8 432.054 416.78 426.247 413.245 423.722C409.711 421.197 405.419 420.44 400.369 421.45C395.319 422.46 386.483 427.762 373.859 437.356C367.547 442.153 361.235 446.95 354.923 451.747C353.408 448.97 351.893 446.193 350.378 443.415C347.349 437.861 344.066 433.316 340.532 429.782C336.997 426.247 332.705 423.217 327.655 420.692C322.606 418.168 318.314 416.905 314.779 416.905C311.244 416.905 307.71 418.168 304.175 420.692Z" fill="#000000" fill-rule="nonzero" opacity="1" stroke="none"/>
</g>
</svg>
