<?xml version="1.0" encoding="UTF-8" standalone="no"?>
<!DOCTYPE svg PUBLIC "-//W3C//DTD SVG 1.1//EN" "http://www.w3.org/Graphics/SVG/1.1/DTD/svg11.dtd">
<!-- Created with Vectornator (http://vectornator.io/) -->
<svg height="100%" stroke-miterlimit="10" style="fill-rule:nonzero;clip-rule:evenodd;stroke-linecap:round;stroke-linejoin:round;" version="1.1" viewBox="198.569 401.956 439.861 202.087" width="100%" xml:space="preserve" xmlns="http://www.w3.org/2000/svg" xmlns:xlink="http://www.w3.org/1999/xlink">
<defs/>
<g id="Capa-1-copiar-copiar">
<g opacity="1">
<g opacity="1">
<path d="M265.764 517.671L233.029 517.671L218.076 477.186C217.931 476.499 217.677 475.591 217.314 474.462C216.951 473.333 216.503 471.984 215.971 470.414L216.189 477.922L216.189 517.671L198.574 517.671L198.574 404.018L217.06 404.018C230.706 404.018 240.916 406.741 247.691 412.188C256.304 419.157 260.611 429.069 260.611 441.927C260.611 455.667 254.828 465.163 243.263 470.414L265.764 517.671ZM216.334 456.649L218.366 456.649C221.85 456.649 224.754 455.299 227.077 452.6C229.399 449.901 230.561 446.466 230.561 442.295C230.561 433.805 226.181 429.56 217.423 429.56L216.334 429.56L216.334 456.649Z" fill="#000000" fill-rule="nonzero" opacity="1" stroke="none"/>
<path d="M356.714 461.212C356.714 478.535 352.818 492.619 345.027 503.464C337.285 514.261 327.196 519.659 314.759 519.659C303.726 519.659 294.266 515.512 286.379 507.219C276.459 496.717 271.499 480.964 271.499 459.961C271.499 439.841 276.676 424.457 287.032 413.808C294.726 405.907 303.847 401.956 314.396 401.956C327.317 401.956 337.6 407.305 345.245 418.003C352.891 428.701 356.714 443.104 356.714 461.212ZM325.284 461.433C325.284 440.872 321.703 430.591 314.542 430.591C310.961 430.591 308.106 433.29 305.977 438.688C303.896 443.693 302.855 451.054 302.855 460.771C302.855 470.34 303.835 477.762 305.795 483.038C307.755 488.313 310.477 490.951 313.961 490.951C317.542 490.951 320.3 488.35 322.236 483.148C324.268 477.946 325.284 470.708 325.284 461.433Z" fill="#000000" fill-rule="nonzero" opacity="1" stroke="none"/>
<path d="M432.638 482.706L430.896 515.536C424.169 518.285 418.145 519.659 412.822 519.659C400.289 519.659 389.74 514.997 381.175 505.673C371.594 495.22 366.803 480.425 366.803 461.286C366.803 443.374 371.303 428.996 380.304 418.151C389.304 407.355 401.329 401.956 416.379 401.956C421.266 401.956 426.25 402.889 431.331 404.754L431.331 437.216C426.831 432.652 422.21 430.37 417.467 430.37C411.273 430.37 406.434 433.044 402.95 438.393C399.466 443.791 397.724 451.251 397.724 460.771C397.724 465.384 398.16 469.506 399.031 473.137C399.902 476.769 401.148 479.836 402.769 482.338C404.39 484.841 406.386 486.755 408.757 488.08C411.128 489.405 413.838 490.067 416.887 490.067C422.113 490.067 427.363 487.614 432.638 482.706Z" fill="#000000" fill-rule="nonzero" opacity="1" stroke="none"/>
<path d="M444.469 517.671L444.469 404.018L500.722 404.018L500.722 430.738L474.737 430.738L474.737 447.3L498.037 447.3L498.037 472.99L474.737 472.99L474.737 490.362L500.722 490.362L500.722 517.671L444.469 517.671Z" fill="#000000" fill-rule="nonzero" opacity="1" stroke="none"/>
<path d="M552.766 517.671L522.498 517.671L522.498 431.253L505.803 431.253L505.803 404.018L586.134 404.018L580.735 431.253L552.766 431.253L552.766 517.671Z" fill="#000000" fill-rule="nonzero" opacity="1" stroke="none"/>
<g opacity="1">
<path d="M638.431 517.671L624.698 517.671L624.701 503.244L602.051 503.244L599.583 517.671L568.299 517.671L595.228 404.018L638.431 404.119L638.431 517.671ZM624.701 478.879L624.701 465.629C624.653 465.58 624.847 464.917 624.701 463.641C624.605 462.562 624.711 459.705 624.701 450.833C624.605 449.999 624.847 448.858 624.701 447.411C624.556 445.963 624.943 444.135 624.701 441.927L624.763 432.365C624.666 433.396 613 433.363 612.83 434.639C612.661 435.915 612.479 437.314 612.286 438.835C611.947 441.878 611.705 443.988 611.56 445.165C611.415 446.343 611.318 447.055 611.27 447.3L609.165 461.065L606.116 478.879L624.701 478.879Z" fill="#000000" fill-rule="nonzero" opacity="1" stroke="none"/>
</g>
</g>
</g>
<g opacity="1">
<path d="M198.569 540.273L209.237 540.273C214.376 540.273 218.114 541.636 220.45 544.361C222.786 547.114 223.954 551.474 223.954 557.442C223.954 565.836 221.605 571.259 216.907 573.712C214.545 574.829 211.132 575.388 206.667 575.388L206.667 603.389L198.569 603.389L198.569 540.273ZM206.667 568.112C210.016 568.112 212.326 567.403 213.597 565.986C214.895 564.541 215.544 561.98 215.544 558.301C215.544 554.54 214.921 551.787 213.675 550.043C212.43 548.299 210.47 547.427 207.797 547.427L206.667 547.427L206.667 568.112Z" fill="#000000" fill-rule="nonzero" opacity="1" stroke="none"/>
<path d="M265.389 561.08L272.864 561.08L272.864 603.389L265.389 603.389L265.389 561.08ZM268.893 543.094C270.243 543.094 271.411 543.612 272.397 544.647C273.383 545.683 273.876 546.923 273.876 548.367C273.876 549.839 273.383 551.092 272.397 552.128C271.411 553.164 270.217 553.681 268.815 553.681C267.414 553.681 266.22 553.164 265.233 552.128C264.273 551.12 263.793 549.853 263.793 548.326C263.793 546.909 264.286 545.683 265.272 544.647C266.336 543.612 267.543 543.094 268.893 543.094Z" fill="#000000" fill-rule="nonzero" opacity="1" stroke="none"/>
<path d="M314.961 561.08L338.36 561.08L324.889 596.318L337.659 596.318L337.659 603.389L313.871 603.389L327.809 567.989L314.961 567.989L314.961 561.08Z" fill="#000000" fill-rule="nonzero" opacity="1" stroke="none"/>
<path d="M377.498 561.08L400.897 561.08L387.426 596.318L400.196 596.318L400.196 603.389L376.408 603.389L390.346 567.989L377.498 567.989L377.498 561.08Z" fill="#000000" fill-rule="nonzero" opacity="1" stroke="none"/>
<path d="M457.516 589.123L464.446 589.123C463.901 599.07 460.008 604.044 452.766 604.044C450.612 604.044 448.763 603.621 447.218 602.776C445.674 601.932 444.396 600.623 443.383 598.852C442.371 597.081 441.625 594.832 441.145 592.107C440.665 589.382 440.425 586.139 440.425 582.378C440.425 574.911 441.417 569.379 443.403 565.781C445.389 562.184 448.458 560.386 452.611 560.386C460.683 560.386 464.719 567.853 464.719 582.787L464.719 583.768L447.705 583.768C447.705 592.816 449.418 597.34 452.844 597.34C455.959 597.34 457.516 594.601 457.516 589.123ZM457.127 578.127C456.815 573.685 456.335 570.769 455.686 569.379C455.011 567.825 453.921 567.049 452.416 567.049C450.885 567.049 449.794 567.825 449.146 569.379C448.497 570.769 448.017 573.685 447.705 578.127L457.127 578.127Z" fill="#000000" fill-rule="nonzero" opacity="1" stroke="none"/>
<path d="M506.972 561.08L514.408 561.08L514.408 566.354C515.68 564.119 516.938 562.552 518.184 561.653C519.43 560.753 521.078 560.236 523.129 560.099L523.129 568.275C522.61 568.193 522.168 568.152 521.805 568.152C519.132 568.152 517.224 568.875 516.082 570.319C514.966 571.736 514.408 574.216 514.408 577.759L514.408 603.389L506.972 603.389L506.972 561.08Z" fill="#000000" fill-rule="nonzero" opacity="1" stroke="none"/>
<path d="M563.902 561.08L571.338 561.08L571.338 603.389L563.902 603.389L563.902 561.08ZM576.672 543.503L568.769 554.785L564.759 552.373L571.338 539.905L576.672 543.503Z" fill="#000000" fill-rule="nonzero" opacity="1" stroke="none"/>
<path d="M638.431 561.08L638.431 603.389L630.994 603.389L630.994 597.953C629.93 600.269 628.866 601.863 627.802 602.735C626.738 603.608 625.336 604.044 623.597 604.044C620.249 604.044 617.796 602.245 616.239 598.648C614.682 595.05 613.903 589.409 613.903 581.724C613.903 574.393 614.682 569.004 616.239 565.557C617.796 562.109 620.249 560.386 623.597 560.386C626.66 560.386 629.126 562.211 630.994 565.863L630.994 561.08L638.431 561.08ZM621.612 582.051C621.612 587.61 621.962 591.494 622.663 593.701C623.39 595.909 624.661 597.012 626.478 597.012C628.139 597.012 629.346 595.868 630.099 593.579C630.852 591.126 631.228 587.352 631.228 582.255C631.228 577.132 630.852 573.344 630.099 570.891C629.346 568.602 628.139 567.457 626.478 567.457C624.713 567.457 623.454 568.548 622.702 570.728C621.975 572.744 621.612 576.519 621.612 582.051Z" fill="#000000" fill-rule="nonzero" opacity="1" stroke="none"/>
</g>
</g>
</svg>
